<?xml version="1.0" standalone="no"?>
<!DOCTYPE svg PUBLIC "-//W3C//DTD SVG 20010904//EN"
 "http://www.w3.org/TR/2001/REC-SVG-20010904/DTD/svg10.dtd">
<svg version="1.0" xmlns="http://www.w3.org/2000/svg"
 width="700.000000pt" height="700.000000pt" viewBox="0 0 700.000000 700.000000"
 preserveAspectRatio="xMidYMid meet">
<metadata>
Created by potrace 1.11, written by Peter Selinger 2001-2013
</metadata>
<g transform="translate(0.000000,700.000000) scale(0.100000,-0.100000)"
fill="#000000" stroke="none">
<path d="M1620 6994 c-181 -17 -314 -46 -465 -101 -547 -197 -968 -665 -1104
-1228 -47 -198 -46 -133 -46 -2165 0 -2032 -1 -1967 46 -2165 152 -627 657
-1132 1284 -1284 198 -47 133 -46 2165 -46 1561 0 1931 2 2000 14 387 61 716
227 985 496 269 269 435 598 496 985 12 69 14 439 14 2000 0 2032 1 1967 -46
2165 -150 620 -650 1125 -1269 1280 -204 52 -92 49 -2130 51 -1042 0 -1911 0
-1930 -2z m2840 -3494 l0 -1170 -215 0 -215 0 0 1170 0 1170 215 0 215 0 0
-1170z m-1472 123 l2 -923 390 0 390 0 0 -185 0 -185 -615 0 -615 0 0 1103 c0
607 3 1107 7 1111 4 3 104 5 222 4 l216 -3 3 -922z"/>
</g>
</svg>
